<svg height="511pt" viewBox="0 -27 511.99869 511" width="511pt" xmlns="http://www.w3.org/2000/svg"><g fill="#53433f"><path d="m93.894531 168.054688c-32.109375 0-63.742187-7.726563-92.390625-22.671876-1.371094-.714843-1.902344-2.402343-1.1875-3.773437.71875-1.367187 2.410156-1.898437 3.773438-1.1875 32.667968 17.042969 69.347656 24.429687 106.054687 21.359375 1.527344-.132812 2.890625 1.015625 3.023438 2.554688.125 1.539062-1.015625 2.894531-2.554688 3.023437-5.578125.464844-11.15625.695313-16.71875.695313zm0 0"/><path d="m327.753906 25.054688c-29.519531 0-58.804687-6.546876-85.582031-19.230469-1.394531-.660157-1.992187-2.328125-1.332031-3.722657.664062-1.398437 2.332031-1.992187 3.726562-1.332031 30.90625 14.636719 65.253906 20.863281 99.328125 18.015625 1.542969-.132812 2.894531 1.011719 3.023438 2.550782.128906 1.542968-1.015625 2.894531-2.554688 3.023437-5.53125.464844-11.078125.695313-16.609375.695313zm0 0"/><path d="m361.480469 34.960938c.019531-1.5625-.902344-3.054688-2.828125-4.167969-4.203125-2.425781-11.546875-2.121094-16.398438.683593-2.769531 1.597657-4.125 3.664063-4.003906 5.59375v30.023438c.097656 1.449219 1.023438 2.820312 2.824219 3.863281 4.203125 2.425781 11.546875 2.121094 16.402343-.679687 2.722657-1.574219 4.085938-3.601563 4.011719-5.503906h.003907v-29.8125zm0 0"/></g><path d="m357.476562 40.265625c-4.855468 2.800781-12.195312 3.105469-16.402343.679687-4.203125-2.429687-3.675781-6.667968 1.179687-9.46875 4.851563-2.804687 12.195313-3.109374 16.398438-.683593 4.203125 2.429687 3.679687 6.667969-1.175782 9.472656zm0 0" fill="#68544f"/><path d="m356.140625 17.957031c.011719-.84375-.484375-1.652343-1.527344-2.253906-2.269531-1.308594-6.238281-1.144531-8.859375.367187-1.496094.867188-2.230468 1.980469-2.164062 3.023438v16.222656c.054687.78125.554687 1.523438 1.527344 2.085938 2.269531 1.308594 6.238281 1.144531 8.859374-.367188 1.472657-.851562 2.207032-1.945312 2.167969-2.972656v-16.109375zm0 0" fill="#53433f"/><path d="m353.976562 20.820312c-2.621093 1.515626-6.589843 1.679688-8.859374.367188-2.273438-1.3125-1.988282-3.601562.636718-5.117188 2.621094-1.511718 6.589844-1.675781 8.859375-.367187 2.269531 1.3125 1.984375 3.605469-.636719 5.117187zm0 0" fill="#68544f"/><path d="m430.71875 71.015625c.023438-1.558594-.898438-3.054687-2.824219-4.164063-4.207031-2.429687-11.546875-2.125-16.402343.679688-2.769532 1.597656-4.125 3.664062-4 5.59375v30.023438c.09375 1.449218 1.019531 2.824218 2.820312 3.863281 4.207031 2.425781 11.550781 2.121093 16.402344-.679688 2.726562-1.574219 4.085937-3.601562 4.011718-5.503906h.003907v-29.8125zm0 0" fill="#53433f"/><path d="m426.714844 76.320312c-4.851563 2.800782-12.195313 3.105469-16.402344.679688-4.203125-2.425781-3.675781-6.667969 1.179688-9.46875 4.855468-2.804688 12.195312-3.109375 16.402343-.679688 4.203125 2.425782 3.675781 6.664063-1.179687 9.46875zm0 0" fill="#68544f"/><path d="m425.378906 54.011719c.011719-.84375-.484375-1.648438-1.527344-2.25-2.269531-1.3125-6.238281-1.148438-8.859374.367187-1.496094.863282-2.230469 1.980469-2.164063 3.023438l.003906 16.21875c.050781.785156.550781 1.527344 1.523438 2.085937 2.269531 1.3125 6.238281 1.148438 8.859375-.367187 1.472656-.847656 2.207031-1.941406 2.167968-2.972656h.003907v-16.105469zm0 0" fill="#53433f"/><path d="m423.214844 56.875c-2.621094 1.515625-6.589844 1.679688-8.859375.367188-2.269531-1.308594-1.984375-3.601563.636719-5.113282 2.621093-1.515625 6.589843-1.679687 8.859374-.367187 2.273438 1.308593 1.988282 3.601562-.636718 5.113281zm0 0" fill="#68544f"/><path d="m430.082031 59.363281c1.152344-1.875 1.824219-4.65625.019531-7.324219-.265624-.4375-.5625-.855468-.929687-1.234374-.414063-.429688-.882813-.773438-1.371094-1.074219-.054687-.039063-.101562-.078125-.160156-.121094l-70.75-40.84375c-.023437-.019531-.527344-.347656-1.375-.605469-.027344-.011718-.058594-.019531-.089844-.027344-.234375-.066406-.492187-.128906-.773437-.175781-1.589844-.289062-3.277344-.046875-4.753906.808594l-245.035157 145.148437c-4.039062 2.925782-3.742187 6.894532-2.433593 9.351563 1.074218 2.007813 2.910156 2.816406 2.917968 2.820313l72.398438 37.167968c3.566406 1.652344 6.789062-.21875 6.789062-.21875l7.25-4.214844v91.898438l-34.558594 96.105469c-.023437.085937-.035156.167969-.058593.253906-.574219 1.808594-.4375 3.835937.585937 5.609375.535156.925781 1.257813 1.664062 2.085938 2.234375.28125.210937.46875.324219.472656.324219l107.367188 61.988281c3.304687 1.90625 6.898437.054687 6.992187 0l97.636719-56.371094c.011718-.003906.019531-.011719.027344-.015625l.035156-.019531c.003906-.003906.109375-.070313.277344-.183594.910156-.585937 1.707031-1.375 2.285156-2.378906.351562-.609375.566406-1.253906.71875-1.90625.03125-.121094.0625-.242187.085937-.371094.039063-.21875.070313-.4375.089844-.660156.007813-.113281.003906-.230469.007813-.351563.011718-.441406-.015626-.875-.085938-1.308593-.015625-.113281-.03125-.222657-.054688-.339844-.042968-.207031-.09375-.414063-.15625-.617187-.023437-.089844-.035156-.175782-.066406-.269532l-34.570312-98.027344v-91.789062zm-103.167969 173.273438v47.414062l-16.308593-14.476562zm-27.148437 23.3125-18.792969-16.683594 37.882813-21.871094zm20.152344-55.324219-33.863281 19.554688 15.054687-30.410157zm-43.394531 7.285156v-32.339844l12.449218 7.191407zm0 62.648438 12.449218 7.1875-12.449218 25.148437zm0-16.152344v-.386719l1.25 1.105469zm0-94.988281v-.386719l1.25 1.109375zm50.390624 25.648437-16.308593-14.476562 16.308593-32.9375zm-27.148437-24.105468-16.957031-15.050782 34.273437-19.921875zm-5.046875-38.648438 13.324219-21.402344 11.875 6.855469zm-24.566406 13.214844v-56.496094l26.070312 15.050781zm-13.988282 10-21.101562 12.179687-18.734375-35.414062 39.835937 23zm-50.390624-13.269532 17.167968 32.449219-17.167968 9.910157zm39.234374 141.0625 10.898438-6.289062-.546875 25.851562zm-11.378906-88.414062 18.351563 34.683594-39.210938-22.640625zm22.535156 57.996094-19.621093 14.425781-23.238281-43.917969 42.859374 24.746094zm0-71.007813v25.691407l-10.414062-19.679688zm-50.390624 107.925781v-50.734374l19.378906 36.621093-18.558594 13.640625zm8.484374 11.253907 18.625-10.753907 17.699219 33.445313-37.636719-21.726563zm37.273438 39.390625-22.265625 12.855468-16.097656-35.003906zm31.582031 2.550781 36.71875-21.203125-14.210937 35.246094zm2.941407-17.851563 15.058593-30.410156 18.808594 10.859375zm54.847656-203.019531 62.441406-36.296875-62.441406 100.308594zm12.066406-23.460937-19.0625 11.007812-18.464844-10.664062 40.316406-64.769532 54.398438 31.410157zm-19.027344-54.558594-30.265625 48.113281-26.53125-15.320312zm-77.777344 44.90625v50.113281l-43.398437-25.058593zm-75.421874 110.039062-57.988282-29.769531 69.03125-42.667969v66.0625zm18.460937 122.359376 17.898437 38.917968-40.25 23.234375zm-20.8125 78.101562 45.847656-23.664062 31.398438 68.261718zm58.292969-30.085938 26.035156-13.4375 1.003906 72.226563zm40.074218-9.785156 22.5625 13.027344-21.632812 53.644531zm34.792969 20.089844 43.335938 25.019531-69.636719 40.207031zm44.089844 8.519531-37.96875-23.691406 15.796875-39.179687zm0 0" fill="#d2c5c2"/><path d="m375.472656 392.445312-34.570312-98.03125v-186.648437c0-.144531-13.199219-3.230469-13.261719-3.101563l-27.875 56.300782-23.945313-21.261719c-1.542968-1.371094-10.398437-.429687-10.433593-.402344l-28.84375 21.203125-31.582031-59.6875c-.054688-.105468-13.175782 3.15625-13.175782 3.269532v186.628906l-34.554687 96.109375c-1.722657 5.65625 3.070312 8.414062 3.082031 8.421875l107.367188 61.988281c3.304687 1.90625 6.898437.054687 6.996093 0l97.699219-56.40625c.015625-.011719 4.835938-2.839844 3.097656-8.382813zm-112.9375-85.996093-19.378906-36.621094 19.378906-14.25zm13.988282-52.429688 16.808593 14.921875-16.808593 33.953125zm27.648437 24.546875 17.839844 15.835938-35.957031 20.761718zm22.742187 1.484375-16.308593-14.476562 16.308593-32.9375zm-27.148437-24.101562-18.792969-16.683594 37.882813-21.871094zm-63.222656 1.378906-23.238281-43.917969 46.476562 26.832032zm-30.769531-28.242187 19.378906 36.617187-19.378906 14.246094zm25.988281 49.117187 18.820312 35.5625-37.636719-21.726563zm51.351562 54.8125 36.71875-21.203125-14.210937 35.246094zm17.195313 27.214844-22.621094 56.101562-.988281-70.832031zm33.160156-44.832031 22.171875 62.871093-37.972656-23.691406zm-47.414062-95.21875 18.121093-36.597657 17.835938 15.835938zm-74.507813-23.9375 20.214844-14.863282 20.21875 38.210938zm45.082031 137.167968-25.796875 13.3125-17.664062-38.40625zm6.089844 12.597656 1.003906 72.226563-27.039062-58.789063zm-7.082031 88.121094-77.242188-44.597656 45.847657-23.664062zm56.722656-66.378906 42.933594 26.789062-70.042969 40.4375zm14.554687-230.097656v47.414062l-16.308593-14.476562zm-50.390624 70.257812v-48.878906l16.808593 14.925781zm-13.988282-49.152344v50.867188l-19.375-36.621094zm-56.761718 24.367188v-50.863281l19.378906 36.617187zm-6.570313 128.304688 19.183594 41.71875-41.976563 21.664062zm0 0" fill="#dfd7d5"/><path d="m403.34375 75.847656-75.375 121.082032c-2.039062 3.28125-1.035156 7.59375 2.242188 9.636718 1.152343.714844 2.425781 1.054688 3.691406 1.054688 2.335937 0 4.617187-1.167969 5.941406-3.296875l90.210938-144.917969zm0 0" fill="#dfd7d5"/><path d="m126.484375 177.960938c.023437-1.5625-.898437-3.054688-2.824219-4.167969-4.203125-2.425781-11.546875-2.121094-16.402344.679687-2.769531 1.601563-4.125 3.667969-4 5.597656v30.019532c.097657 1.453125 1.023438 2.824218 2.824219 3.863281 4.203125 2.429687 11.546875 2.125 16.398438-.679687 2.726562-1.574219 4.089843-3.597657 4.015625-5.503907h.003906v-29.808593zm0 0" fill="#53433f"/><path d="m122.480469 183.261719c-4.851563 2.804687-12.195313 3.105469-16.398438.679687-4.207031-2.425781-3.679687-6.667968 1.175781-9.46875 4.855469-2.800781 12.199219-3.105468 16.402344-.679687s3.675782 6.667969-1.179687 9.46875zm0 0" fill="#68544f"/><path d="m121.144531 160.953125c.011719-.84375-.484375-1.648437-1.527343-2.25-2.269532-1.3125-6.238282-1.148437-8.859376.367187-1.496093.863282-2.226562 1.980469-2.164062 3.023438l.003906 16.21875c.050782.785156.550782 1.523438 1.523438 2.085938 2.269531 1.3125 6.238281 1.148437 8.859375-.367188 1.472656-.847656 2.210937-1.945312 2.167969-2.972656h.003906v-16.105469zm0 0" fill="#53433f"/><path d="m118.980469 163.820312c-2.621094 1.511719-6.589844 1.675782-8.859375.367188-2.269532-1.3125-1.984375-3.605469.636718-5.117188 2.621094-1.515624 6.589844-1.679687 8.859376-.367187 2.273437 1.3125 1.988281 3.601563-.636719 5.117187zm0 0" fill="#68544f"/><path d="m195.722656 214.015625c.023438-1.5625-.898437-3.054687-2.824218-4.167969-4.203126-2.425781-11.546876-2.121094-16.402344.679688-2.769532 1.601562-4.121094 3.667968-4 5.597656v30.023438c.097656 1.449218 1.023437 2.820312 2.824218 3.859374 4.203126 2.429688 11.546876 2.125 16.398438-.679687 2.726562-1.574219 4.085938-3.597656 4.011719-5.503906h.007812v-29.808594zm0 0" fill="#53433f"/><path d="m191.722656 219.316406c-4.855468 2.804688-12.199218 3.109375-16.402344.679688-4.203124-2.425782-3.675781-6.664063 1.175782-9.46875 4.855468-2.800782 12.199218-3.105469 16.402344-.679688 4.203124 2.429688 3.675781 6.667969-1.175782 9.46875zm0 0" fill="#68544f"/><path d="m190.386719 197.007812c.011719-.839843-.488281-1.648437-1.527344-2.25-2.273437-1.308593-6.238281-1.144531-8.863281.367188-1.496094.863281-2.226563 1.980469-2.160156 3.023438v16.21875c.050781.785156.550781 1.527343 1.527343 2.089843 2.269531 1.308594 6.238281 1.144531 8.859375-.367187 1.472656-.851563 2.207032-1.945313 2.167969-2.976563v-16.105469zm0 0" fill="#53433f"/><path d="m188.222656 199.875c-2.625 1.515625-6.589844 1.679688-8.863281.367188-2.269531-1.3125-1.984375-3.601563.636719-5.117188 2.625-1.511719 6.589844-1.675781 8.859375-.367188 2.273437 1.3125 1.988281 3.601563-.632813 5.117188zm0 0" fill="#68544f"/><path d="m427.640625 49.609375-70.75-40.847656c-.066406-.039063-3.007813-2.015625-6.992187 0l-245.035157 145.152343c-4.039062 2.925782-3.742187 6.894532-2.433593 9.351563 1.074218 2.007813 2.910156 2.816406 2.917968 2.820313l72.398438 37.167968c3.566406 1.652344 6.789062-.21875 6.789062-.21875l243.042969-141.277344c.003906 0 1.515625-.785156 2.503906-2.394531 1.511719-2.457031 2.207031-6.476562-2.441406-9.753906zm-246.898437 139.460937-57.988282-29.769531 76.148438-47.066406 57.460937 33.175781zm88.785156-52.210937-56.761719-32.773437 50.394531-29.089844 56.757813 32.769531zm64.378906-37.167969-56.761719-32.773437 76.25-44.023438 56.761719 32.773438zm0 0" fill="#ede9e8"/><path d="m269.53125 294.53125c-.515625 0-1.035156-.140625-1.503906-.441406-21.558594-13.742188-40.054688-31.261719-54.964844-52.058594l-24.941406-34.792969c-.902344-1.257812-.613282-3.003906.640625-3.90625 1.253906-.898437 3.003906-.609375 3.902343.644531l24.945313 34.796876c14.496094 20.214843 32.46875 37.238281 53.425781 50.601562 1.304688.828125 1.6875 2.558594.855469 3.863281-.535156.835938-1.4375 1.292969-2.359375 1.292969zm0 0" fill="#53433f"/><path d="m509.199219 155.160156c-.484375 0-.972657-.125-1.417969-.390625-24.128906-14.210937-44.640625-32.964843-60.964844-55.738281l-24.945312-34.792969c-.898438-1.253906-.613282-3.003906.644531-3.902343 1.253906-.902344 3-.613282 3.902344.644531l24.945312 34.792969c15.867188 22.132812 35.804688 40.359374 59.257813 54.175781 1.332031.785156 1.773437 2.5.992187 3.828125-.523437.886718-1.457031 1.382812-2.414062 1.382812zm0 0" fill="#53433f"/></svg>