<svg height="512pt" viewBox="-73 0 512 512.00049" width="512pt" xmlns="http://www.w3.org/2000/svg"><path d="m239.792969 22.910156-.015625-.007812c-.171875-.097656-.335938-.203125-.507813-.292969l-34.472656-19.820313c-5.808594-3.910156-13.613281-3.859374-22.203125 1.101563l-150.125 87.417969c-17.929688 10.355468-32.46875 38.128906-32.46875 62.039062v251.300782c0 12.816406 4.179688 21.914062 10.816406 26.011718l34.625 19.789063c1.199219.921875 2.492188 1.660156 3.867188 2.210937l.007812.003906h.003906c5.375 2.15625 12.007813 1.441407 19.1875-2.703124l150.121094-87.421876c17.929688-10.351562 32.46875-38.128906 32.46875-62.039062v-251.300781c0-13.125-4.386718-22.34375-11.304687-26.289063zm0 0" fill="#abb7b7"/><path d="m218.628906 24.652344-150.121094 87.417968c-17.933593 10.355469-32.472656 38.132813-32.472656 62.042969v251.300781c0 23.910157 14.539063 34.898438 32.472656 24.546876l150.121094-87.417969c17.929688-10.355469 32.46875-38.132813 32.46875-62.042969v-251.300781c0-23.910157-14.539062-34.898438-32.46875-24.546875zm0 0" fill="#e9e9e9"/><path d="m355.5625 81.054688-.015625-.007813c-.171875-.097656-.335937-.203125-.507813-.292969l-34.476562-19.820312c-5.804688-3.910156-13.609375-3.859375-22.203125 1.101562l-150.121094 87.417969c-17.933593 10.355469-32.46875 38.128906-32.46875 62.039063v251.300781c0 12.816406 4.175781 21.914062 10.816407 26.007812l34.625 19.792969c1.199218.921875 2.492187 1.660156 3.867187 2.210938l.007813.003906c5.378906 2.15625 12.007812 1.441406 19.1875-2.703125l150.121093-87.421875c17.933594-10.351563 32.472657-38.128906 32.472657-62.039063v-251.300781c0-13.125-4.386719-22.34375-11.304688-26.289062zm0 0" fill="#abb7b7"/><path d="m334.394531 82.796875-150.121093 87.417969c-17.933594 10.355468-32.46875 38.132812-32.46875 62.042968v251.300782c0 23.910156 14.535156 34.898437 32.46875 24.546875l150.121093-87.421875c17.933594-10.351563 32.472657-38.128906 32.472657-62.039063v-251.300781c0-23.910156-14.539063-34.898438-32.472657-24.546875zm0 0" fill="#e9e9e9"/><g fill="#abb7b7"><path d="m328.476562 189.199219-129.875 75.628906c-8.324218 4.804687-15.066406-.292969-15.066406-11.390625s6.742188-23.984375 15.066406-28.792969l129.875-75.628906c8.320313-4.804687 15.066407.296875 15.066407 11.390625.003906 11.097656-6.746094 23.988281-15.066407 28.792969zm0 0"/><path d="m328.476562 282.085938-129.875 75.628906c-8.324218 4.804687-15.066406-.292969-15.066406-11.390625 0-11.097657 6.742188-23.988281 15.066406-28.792969l129.875-75.628906c8.320313-4.804688 15.066407.292968 15.066407 11.390625.003906 11.097656-6.746094 23.988281-15.066407 28.792969zm0 0"/><path d="m328.476562 374.972656-129.875 75.628906c-8.324218 4.804688-15.066406-.292968-15.066406-11.390624 0-11.09375 6.742188-23.984376 15.066406-28.789063l129.875-75.632813c8.320313-4.804687 15.066407.296876 15.066407 11.390626.003906 11.097656-6.746094 23.988281-15.066407 28.792968zm0 0"/></g></svg>