<svg xmlns="http://www.w3.org/2000/svg" height="512pt" version="1.1" viewBox="0 -15 512.00029 512" width="512pt">
<g id="surface1">
<path d="M 93.6875 409.84375 C 73.363281 409.84375 56.890625 393.367188 56.890625 373.046875 L 56.890625 192.75 C 56.890625 172.425781 73.363281 155.953125 93.6875 155.953125 C 114.007812 155.953125 130.480469 172.425781 130.480469 192.75 L 130.480469 373.046875 C 130.480469 393.367188 114.007812 409.84375 93.6875 409.84375 Z M 93.6875 409.84375 " style=" stroke:none;fill-rule:nonzero;fill:rgb(69.803922%,23.137255%,18.431373%);fill-opacity:1;" />
<path d="M 283.238281 22.945312 C 277.0625 26.515625 270.972656 30.539062 264.992188 34.964844 C 225.285156 40.652344 184.855469 36.371094 147.355469 22.582031 C 147.519531 22.605469 147.683594 22.621094 147.847656 22.648438 C 136.496094 18.492188 125.410156 13.503906 114.6875 7.636719 C 102.566406 -2.257812 85.503906 -2.945312 66.585938 7.976562 C 29.8125 29.210938 0 86.167969 0 135.203125 C 0 163.113281 9.667969 182.421875 24.773438 189.976562 C 31.355469 194.152344 52.644531 210.757812 57.148438 214.488281 C 57.121094 214.457031 57.097656 214.421875 57.070312 214.394531 C 86.136719 238.382812 112.113281 265.804688 134.453125 296.015625 C 134.289062 299.9375 134.195312 303.839844 134.195312 307.722656 C 134.195312 417.476562 200.925781 467.921875 283.238281 420.394531 C 365.554688 372.871094 432.285156 245.375 432.285156 135.621094 C 432.285156 25.867188 365.554688 -24.578125 283.238281 22.945312 Z M 283.238281 22.945312 " style=" stroke:none;fill-rule:nonzero;fill:rgb(81.960784%,81.960784%,81.960784%);fill-opacity:1;" />
<path d="M 432.285156 135.621094 C 432.285156 245.375 365.554688 372.871094 283.238281 420.394531 C 200.925781 467.917969 134.195312 417.472656 134.195312 307.722656 C 134.195312 197.96875 200.925781 70.46875 283.238281 22.945312 C 365.554688 -24.578125 432.285156 25.867188 432.285156 135.621094 Z M 432.285156 135.621094 " style=" stroke:none;fill-rule:nonzero;fill:rgb(90.980392%,29.803922%,23.921569%);fill-opacity:1;" />
<path d="M 382.828125 164.175781 C 382.828125 237.507812 338.242188 322.699219 283.242188 354.453125 C 228.242188 386.207031 183.65625 352.5 183.65625 279.167969 C 183.65625 205.835938 228.242188 120.644531 283.242188 88.890625 C 338.238281 57.136719 382.828125 90.84375 382.828125 164.175781 Z M 382.828125 164.175781 " style=" stroke:none;fill-rule:nonzero;fill:rgb(69.803922%,23.137255%,18.431373%);fill-opacity:1;" />
<path d="M 42.699219 165.734375 C 42.699219 113.652344 74.367188 53.148438 113.429688 30.597656 C 125.925781 23.382812 137.65625 20.949219 147.847656 22.648438 C 136.496094 18.492188 125.410156 13.5 114.6875 7.636719 C 102.566406 -2.257812 85.503906 -2.945312 66.585938 7.976562 C 29.8125 29.210938 0 86.167969 0 135.203125 C 0 163.113281 9.667969 182.421875 24.773438 189.976562 C 35.964844 197.664062 46.738281 205.871094 57.148438 214.484375 C 48.089844 203.867188 42.699219 187.199219 42.699219 165.734375 Z M 42.699219 165.734375 " style=" stroke:none;fill-rule:nonzero;fill:rgb(90.980392%,29.803922%,23.921569%);fill-opacity:1;" />
<path d="M 311.328125 152.730469 L 248.980469 116.734375 C 217.0625 150.757812 192.800781 201.527344 185.753906 250.773438 L 249.277344 287.453125 C 258.03125 293.84375 270.015625 293.992188 283.242188 286.355469 C 310.035156 270.886719 331.753906 229.386719 331.753906 193.660156 C 331.753906 171.898438 323.683594 157.320312 311.328125 152.730469 Z M 311.328125 152.730469 " style=" stroke:none;fill-rule:nonzero;fill:rgb(81.960784%,81.960784%,81.960784%);fill-opacity:1;" />
<path d="M 331.753906 193.660156 C 331.753906 229.386719 310.035156 270.886719 283.242188 286.355469 C 256.449219 301.824219 234.726562 285.40625 234.726562 249.679688 C 234.726562 213.957031 256.449219 172.457031 283.242188 156.988281 C 310.035156 141.519531 331.753906 157.9375 331.753906 193.660156 Z M 331.753906 193.660156 " style=" stroke:none;fill-rule:nonzero;fill:rgb(89.019608%,89.019608%,89.019608%);fill-opacity:1;" />
<path d="M 359.582031 126.128906 C 352.1875 126.128906 345.308594 121.421875 342.890625 114.011719 C 339.882812 104.789062 344.914062 94.875 354.136719 91.867188 L 488.984375 47.863281 C 498.203125 44.859375 508.117188 49.890625 511.128906 59.109375 C 514.136719 68.332031 509.101562 78.246094 499.882812 81.253906 L 365.035156 125.257812 C 363.222656 125.847656 361.386719 126.128906 359.582031 126.128906 Z M 359.582031 126.128906 " style=" stroke:none;fill-rule:nonzero;fill:rgb(100%,84.705882%,0%);fill-opacity:1;" />
<path d="M 483.488281 340.277344 C 480.511719 340.277344 477.492188 339.519531 474.726562 337.921875 L 361.734375 272.6875 C 353.332031 267.835938 350.453125 257.09375 355.304688 248.695312 C 360.152344 240.296875 370.886719 237.414062 379.296875 242.265625 L 492.285156 307.5 C 500.6875 312.351562 503.566406 323.089844 498.714844 331.492188 C 495.460938 337.125 489.558594 340.277344 483.488281 340.277344 Z M 483.488281 340.277344 " style=" stroke:none;fill-rule:nonzero;fill:rgb(100%,84.705882%,0%);fill-opacity:1;" />
<path d="M 291.4375 481.703125 C 283.585938 481.703125 276.433594 476.398438 274.425781 468.441406 L 240.355469 333.589844 C 237.980469 324.1875 243.679688 314.636719 253.082031 312.261719 C 262.476562 309.886719 272.035156 315.582031 274.410156 324.988281 L 308.476562 459.835938 C 310.855469 469.238281 305.15625 478.789062 295.753906 481.164062 C 294.308594 481.527344 292.859375 481.703125 291.4375 481.703125 Z M 291.4375 481.703125 " style=" stroke:none;fill-rule:nonzero;fill:rgb(100%,84.705882%,0%);fill-opacity:1;" />
</g>
</svg>