<svg height="512pt" viewBox="-4 0 512 512.00002" width="512pt" xmlns="http://www.w3.org/2000/svg"><path d="m483.363281 227.734375c-.300781-.207031-183.054687-105.773437-183.054687-105.773437-17.363282-10.027344-38.757813-10.027344-56.125 0l-223.859375 129.253906c-11.222657 6.480468-20.324219 23.867187-20.324219 38.835937v69.898438c0 8.960937 3.273438 14.988281 8.300781 17.023437l-.03125.019532 229.949219 132.761718c.777344.617188 1.628906 1.09375 2.527344 1.460938l.160156.089844.019531-.015626c3.339844 1.277344 7.425781.828126 11.855469-1.726562l231.59375-133.714844c11.226562-6.480468 20.324219-23.867187 20.324219-38.835937v-70.78125c.003906-7.140625-2.511719-26.582031-21.335938-38.496094zm0 0" fill="#0d68be"/><path d="m482.457031 227.125-182.148437-105.164062c-17.363282-10.027344-38.757813-10.027344-56.125 0l-221.941406 128.140624c-9.886719 5.707032-9.886719 19.976563 0 25.683594l182.148437 105.164063c17.367187 10.027343 38.761719 10.027343 56.125 0l60.390625-34.867188-28.449219-16.425781-46.167969 26.65625c-4.199218 2.425781-8.984374 3.707031-13.835937 3.707031s-9.636719-1.28125-13.835937-3.707031l-161.71875-93.367188 201.511718-116.347656c4.199219-2.425781 8.988282-3.707031 13.835938-3.707031 4.851562 0 9.636718 1.28125 13.839844 3.707031l161.71875 93.367188-60.238282 34.777344h.015625l28.589844 16.335937 66.285156-38.269531c9.886719-5.707032 9.886719-19.976563 0-25.683594zm0 0" fill="#63dcff"/><path d="m482.917969 227.433594c9.402343 5.882812 9.261719 19.761718-.460938 25.375l-66.246093 38.292968c0 35.078126-21.324219 75.824219-47.632813 91.011719-26.308594 15.191407-47.632813-.933593-47.632813-36.007812l-68.164062 39.355469c-11.226562 6.480468-20.328125 23.867187-20.328125 38.835937v69.898437c0 14.96875 9.101563 21.847657 20.328125 15.367188l231.59375-133.714844c11.226562-6.480468 20.324219-23.867187 20.324219-38.835937v-70.78125c.003906-15.875-8.285157-30.550781-21.78125-38.796875zm0 0" fill="#33aeff"/><path d="m368.578125 382.113281c26.308594-15.1875 47.632813-55.933593 47.632813-91.011719l-28.625-16.355468c0 35.074218-21.328126 75.820312-47.636719 91.011718-4.960938 2.863282-9.738281 4.597657-14.234375 5.316407 7.71875 16.726562 24.011718 21.925781 42.863281 11.039062zm0 0" fill="#59c6e6"/><path d="m325.714844 371.074219c4.496094-.71875 9.273437-2.453125 14.234375-5.316407 20.917969-12.078124 38.675781-40.316406 45.078125-69.011718l-98.941406-57.117188c-4.199219-2.425781-8.984376-3.707031-13.835938-3.707031s-9.636719 1.28125-13.839844 3.707031l-120.945312 69.832032 81.3125 46.9375c4.160156 2.367187 8.886718 3.621093 13.675781 3.621093 4.851563 0 9.636719-1.28125 13.835937-3.707031l46.167969-26.652344 28.449219 16.421875.039062.023438c0 9.9375 1.714844 18.351562 4.769532 24.96875zm0 0" fill="#0a4e8f"/><path d="m355.902344 17.949219-.011719-.007813c-.132813-.078125-.265625-.160156-.398437-.230468l-27.007813-15.523438c-4.550781-3.066406-10.667969-3.027344-17.394531.859375l-196.878906 113.667969c-14.050782 8.113281-25.441407 29.871094-25.441407 48.605468v116.027344l127.59375 73.664063 122.957031-70.988281c14.046876-8.109376 25.4375-29.871094 25.4375-48.601563v-196.878906c0-10.28125-3.4375-17.503907-8.855468-20.59375zm0 0" fill="#d1d1d1"/><path d="m339.320312 19.3125-196.878906 113.667969c-14.050781 8.113281-25.4375 29.875-25.4375 48.605469v116.058593l99.359375 57.367188 122.957031-70.988281c14.046876-8.109376 25.4375-29.871094 25.4375-48.601563v-196.878906c0-18.730469-11.390624-27.339844-25.4375-19.230469zm0 0" fill="#e9e9e9"/><path d="m339.320312 19.3125-196.878906 113.667969c-5.363281 3.097656-10.335937 8.1875-14.4375 14.335937-.492187.785156-.96875 1.585938-1.425781 2.40625l84.304687 64.570313c17.839844 13.660156 46.898438-3.117188 64.738282-37.378907l82.113281-157.703124c-4.632813-3.804688-11.167969-4.082032-18.414063.101562zm0 0" fill="#fff"/></svg>